HIERARCHY
ROOT Hips
{
 OFFSET 0.000000 0.000000 0.000000
 CHANNELS 6 Xposition Yposition Zposition Yrotation Xrotation Zrotation
 JOINT Chest
 {
  OFFSET 0.000000 9.585900 0.002600
  CHANNELS 3 Yrotation Xrotation Zrotation
  JOINT Chest2
  {
   OFFSET 0.000000 9.601200 -0.005300
   CHANNELS 3 Yrotation Xrotation Zrotation
   JOINT Chest3
   {
    OFFSET 0.000000 9.561800 0.000000
    CHANNELS 3 Yrotation Xrotation Zrotation
    JOINT Chest4
    {
     OFFSET 0.000000 9.552100 0.000000
     CHANNELS 3 Yrotation Xrotation Zrotation
     JOINT Neck
     {
      OFFSET 0.000000 14.453000 0.000000
      CHANNELS 3 Yrotation Xrotation Zrotation
      JOINT Head
      {
       OFFSET 0.000000 8.936500 -0.011300
       CHANNELS 3 Yrotation Xrotation Zrotation
       End Site
       {
        OFFSET 0.000000 17.073600 -0.006000
       }
      }
     }
     JOINT RightCollar
     {
      OFFSET -2.921100 9.558500 0.000000
      CHANNELS 3 Yrotation Xrotation Zrotation
      JOINT RightShoulder
      {
       OFFSET -13.519700 0.000000 0.000000
       CHANNELS 3 Yrotation Xrotation Zrotation
       JOINT RightElbow
       {
        OFFSET 0.000000 -29.696600 0.000000
        CHANNELS 3 Yrotation Xrotation Zrotation
        JOINT RightWrist
        {
         OFFSET 0.000000 -24.004700 0.000000
         CHANNELS 3 Yrotation Xrotation Zrotation
         End Site
         {
          OFFSET 0.000000 -17.728500 0.000000
         }
        }
       }
      }
     }
     JOINT LeftCollar
     {
      OFFSET 2.921100 9.558500 0.000000
      CHANNELS 3 Yrotation Xrotation Zrotation
      JOINT LeftShoulder
      {
       OFFSET 13.519700 0.000000 0.000000
       CHANNELS 3 Yrotation Xrotation Zrotation
       JOINT LeftElbow
       {
        OFFSET 0.000000 -29.696600 0.000000
        CHANNELS 3 Yrotation Xrotation Zrotation
        JOINT LeftWrist
        {
         OFFSET 0.000000 -24.004700 0.000000
         CHANNELS 3 Yrotation Xrotation Zrotation
         End Site
         {
          OFFSET 0.000000 -17.728500 0.000000
         }
        }
       }
      }
     }
    }
   }
  }
 }
 JOINT RightHip
 {
  OFFSET -7.771700 -0.012900 -0.001300
  CHANNELS 3 Yrotation Xrotation Zrotation
  JOINT RightKnee
  {
   OFFSET 0.000000 -40.869800 0.001200
   CHANNELS 3 Yrotation Xrotation Zrotation
   JOINT RightAnkle
   {
    OFFSET 0.000000 -39.717900 0.002100
    CHANNELS 3 Yrotation Xrotation Zrotation
    JOINT RightToe
    {
     OFFSET 0.000000 -4.965400 11.033500
     CHANNELS 3 Yrotation Xrotation Zrotation
     End Site
     {
      OFFSET 0.000000 -1.423100 5.872300
     }
    }
   }
  }
 }
 JOINT LeftHip
 {
  OFFSET 7.771700 -0.012900 -0.001300
  CHANNELS 3 Yrotation Xrotation Zrotation
  JOINT LeftKnee
  {
   OFFSET 0.000000 -40.869800 0.001200
   CHANNELS 3 Yrotation Xrotation Zrotation
   JOINT LeftAnkle
   {
    OFFSET 0.000000 -39.717900 0.002100
    CHANNELS 3 Yrotation Xrotation Zrotation
    JOINT LeftToe
    {
     OFFSET 0.000000 -4.965400 11.033500
     CHANNELS 3 Yrotation Xrotation Zrotation
     End Site
     {
      OFFSET 0.000000 -1.423100 5.872300
     }
    }
   }
  }
 }
}
MOTION
Frames: 11
Frame Time: 0.008333
0.000000 85.388000 0.000000 0.000000 -5.767877 0.000000 0.000000 11.653817 0.000000 0.000000 -5.885947 0.000000 0.000000 -0.000000 0.000000 0.000000 -0.000000 0.000000 0.000000 12.528835 0.000000 0.000000 0.711642 0.000000 0.000000 -0.000000 0.000000 0.000000 0.000000 -90.000000 0.000000 -2.309062 0.000000 0.000000 2.309062 0.000000 0.000000 -0.000000 0.000000 0.000000 -0.000000 90.000000 0.000000 -2.309062 0.000000 0.000000 2.309062 0.000000 0.000000 8.520406 0.000000 0.000000 1.905762 0.000000 -0.000000 -4.658285 0.000000 0.000000 -0.000000 0.000000 0.000000 8.520406 0.000000 0.000000 1.905762 0.000000 -0.000000 -4.658285 0.000000 0.000000 -0.000000 0.000000
8.073560 52.241669 39.527495 173.518034 -36.211943 -2.028585 2.923036 21.390688 1.916155 0.370659 2.881282 0.365480 0.581096 4.728845 0.608712 2.639912 18.145930 2.686684 -0.359320 14.618914 -1.336330 -0.167956 -8.642656 -2.370382 -4.973851 -2.135847 -3.412760 -2.565040 1.275105 4.338788 175.896882 -76.960543 -159.551777 3.056332 -4.423447 -17.302131 -2.806643 -1.509181 -0.330909 2.541484 0.782788 3.558714 -170.529748 -62.718862 152.489349 -14.624665 -29.625114 32.254665 -4.281869 -44.749769 2.871621 157.087417 84.693643 160.663908 -2.353437 -12.872121 -2.049311 0.046414 -0.208045 -0.014333 0.767530 -41.213952 4.528011 65.355687 83.461391 54.310818 -6.339508 -11.652995 10.946621 0.563362 1.649772 0.252986
8.070943 52.240111 39.528934 173.511549 -36.217243 -2.035319 2.915377 21.412830 1.922056 0.374142 2.879476 0.366898 0.566689 4.757445 0.608553 2.645142 18.134825 2.684311 -0.357980 14.629706 -1.322610 -0.132527 -8.682147 -2.366150 -4.992517 -2.130690 -3.410193 -2.532514 1.292141 4.363107 175.957382 -76.972946 -159.591391 3.069583 -4.399928 -17.278805 -2.814796 -1.487462 -0.332273 2.548881 0.737125 3.553042 -170.520451 -62.918333 152.422839 -14.595705 -29.487230 32.154783 -4.296752 -44.742206 2.879587 156.991129 84.694747 160.569267 -2.347202 -12.872107 -2.048750 0.045592 -0.206623 -0.015693 0.777706 -41.213461 4.527961 65.391140 83.457726 54.356632 -6.334147 -11.647537 10.947137 0.558666 1.643077 0.252098
8.068107 52.239877 39.529142 173.504011 -36.234737 -2.045961 2.904346 21.453442 1.926421 0.374408 2.887069 0.371239 0.562230 4.769323 0.604641 2.651662 18.125723 2.684658 -0.350319 14.630611 -1.312056 -0.085220 -8.734354 -2.360279 -4.985651 -2.151212 -3.413147 -2.534780 1.325842 4.380828 175.987804 -76.983053 -159.592970 3.085141 -4.385541 -17.249796 -2.826670 -1.463100 -0.330684 2.567175 0.690546 3.547672 -170.494261 -63.088191 152.352078 -14.566154 -29.347866 32.059233 -4.305577 -44.720892 2.892268 156.952834 84.699613 160.532702 -2.343415 -12.869376 -2.040808 0.042374 -0.209821 -0.007389 0.777234 -41.196972 4.543850 65.407032 83.461239 54.369767 -6.325226 -11.648731 10.955252 0.550186 1.638820 0.249706
8.062944 52.238449 39.531620 173.493527 -36.235787 -2.049623 2.885436 21.481822 1.917192 0.379748 2.893414 0.375734 0.573732 4.756388 0.604644 2.586823 18.225535 2.674925 -0.279435 14.534149 -1.313846 -0.056824 -8.767936 -2.361167 -5.003232 -2.182760 -3.410520 -2.471172 1.288307 4.394205 175.939753 -76.995089 -159.508053 3.214200 -4.398284 -17.071471 -2.783952 -1.524839 -0.329833 2.581946 0.728935 3.573514 -170.555735 -63.170041 152.400790 -14.536175 -29.202682 31.971060 -4.311691 -44.718572 2.896061 156.856712 84.702750 160.438835 -2.340141 -12.866600 -2.035614 0.043252 -0.208456 -0.011158 0.779402 -41.195969 4.556733 65.359121 83.464757 54.313622 -6.321149 -11.644055 10.965592 0.544183 1.634767 0.247402
8.057432 52.237950 39.534133 173.482710 -36.237591 -2.058483 2.872115 21.500955 1.912832 0.353024 2.925668 0.367264 0.615152 4.725082 0.617050 2.559867 18.258584 2.666318 -0.239935 14.490538 -1.312757 -0.030082 -8.789834 -2.352240 -5.025797 -2.172228 -3.410385 -2.448919 1.284941 4.405671 175.748825 -76.975386 -159.264179 3.307193 -4.491450 -16.906258 -2.783318 -1.524072 -0.322720 2.623712 0.740934 3.589151 -170.656515 -63.287026 152.457634 -14.504545 -29.046147 31.886947 -4.319180 -44.713599 2.908553 156.828499 84.710127 160.410526 -2.333397 -12.861723 -2.027141 0.045906 -0.207015 -0.018441 0.784528 -41.195513 4.567909 65.337570 83.463320 54.294836 -6.321262 -11.638011 10.966627 0.542549 1.631136 0.250475
8.051654 52.238749 39.536521 173.471399 -36.240223 -2.073221 2.857082 21.519237 1.910947 0.352287 2.931862 0.367170 0.619767 4.737215 0.619391 2.545815 18.272935 2.660082 -0.197028 14.464554 -1.298959 0.038403 -8.843859 -2.341209 -5.025546 -2.173781 -3.415209 -2.447321 1.301781 4.415399 175.498766 -76.932749 -158.972768 3.348713 -4.609151 -16.732125 -2.759718 -1.546927 -0.320180 2.655361 0.783138 3.612826 -170.842855 -63.423041 152.584234 -14.469130 -28.869852 31.805331 -4.324271 -44.705197 2.926612 156.815535 84.723436 160.398200 -2.323815 -12.856325 -2.011241 0.044383 -0.206409 -0.021001 0.783882 -41.195531 4.588968 65.331456 83.463216 54.292822 -6.331981 -11.625223 10.968067 0.554031 1.622094 0.253913
8.044064 52.241374 39.538036 173.467393 -36.246268 -2.088976 2.833649 21.541084 1.904307 0.368175 2.927048 0.374013 0.600644 4.756162 0.613153 2.538460 18.289905 2.655666 -0.149894 14.437337 -1.281787 0.185230 -8.911000 -2.297145 -5.021208 -2.174168 -3.422298 -2.444026 1.319867 4.422380 175.301537 -76.873382 -158.726184 3.372441 -4.731576 -16.543706 -2.734587 -1.567843 -0.318320 2.695694 0.821480 3.638992 -171.112627 -63.592960 152.775376 -14.423791 -28.660730 31.728670 -4.304074 -44.689405 2.913132 156.717408 84.735532 160.322144 -2.307439 -12.857408 -1.997155 0.037399 -0.203089 -0.016009 0.780392 -41.189570 4.606057 65.296653 83.463405 54.261284 -6.349142 -11.610959 10.970795 0.561076 1.613652 0.257104
8.036941 52.245423 39.539738 173.454998 -36.249690 -2.110663 2.822210 21.558078 1.909530 0.383309 2.924419 0.381058 0.581831 4.777628 0.606871 2.530955 18.298641 2.650462 -0.101412 14.419100 -1.260623 0.302025 -8.958305 -2.267663 -5.018139 -2.170046 -3.431121 -2.437220 1.334126 4.424662 175.194105 -76.819221 -158.576811 3.376433 -4.861874 -16.328915 -2.734748 -1.565716 -0.313765 2.765893 0.833140 3.662822 -171.456962 -63.805356 153.020046 -14.355851 -28.399042 31.659577 -4.296845 -44.673416 2.934631 156.763818 84.758573 160.371944 -2.301583 -12.857423 -1.952989 0.038104 -0.197613 -0.030470 0.768913 -41.184884 4.639716 65.275674 83.461095 54.238647 -6.354884 -11.601149 10.971220 0.570173 1.606084 0.261335
8.025686 52.249314 39.543053 173.459156 -36.233927 -2.126136 2.806885 21.548865 1.909696 0.365694 2.937100 0.373802 0.547204 4.806854 0.593991 2.561589 18.284360 2.656374 -0.050929 14.405204 -1.239724 0.397457 -8.990304 -2.246798 -5.006044 -2.169904 -3.438242 -2.442100 1.352736 4.415615 175.163596 -76.781170 -158.493152 3.357346 -4.988587 -16.116848 -2.730805 -1.558534 -0.307590 2.830977 0.835436 3.683682 -171.868898 -64.071404 153.315978 -14.257233 -28.076426 31.595434 -4.287031 -44.679084 2.934848 156.883246 84.781002 160.490699 -2.290647 -12.855164 -1.916696 0.040448 -0.193446 -0.040334 0.760078 -41.198846 4.647198 65.190253 83.454318 54.149697 -6.353294 -11.581049 10.975772 0.580035 1.595803 0.264482
8.017177 52.256071 39.544833 173.451925 -36.229534 -2.156554 2.810489 21.549126 1.933905 0.327905 2.955369 0.356396 0.571510 4.797050 0.604255 2.554300 18.293796 2.653906 0.012908 14.406603 -1.194531 0.480526 -9.032023 -2.248483 -4.976802 -2.181437 -3.440647 -2.468535 1.383436 4.392940 175.204615 -76.803329 -158.466330 3.339490 -5.133864 -15.925809 -2.719507 -1.545325 -0.304498 2.881426 0.828600 3.705882 -172.337409 -64.395285 153.664595 -14.129833 -27.690762 31.524624 -4.301006 -44.667097 2.979647 157.132416 84.815190 160.726181 -2.272140 -12.845296 -1.879742 0.042383 -0.194160 -0.047252 0.744434 -41.203883 4.682771 65.184039 83.449118 54.147399 -6.359371 -11.560898 10.975870 0.589866 1.578766 0.267913
